PathFileType        4      (X/Y/Z)      Abduction.trc         																																																																												
DataRate	CameraRate	NumFrames	NumMarkers	Units	OrigDataRate	OrigDataStartFrame	OrigNumFrames																																																																					
100	100	5	25	mm	100	1494	1991																																																																					
Frame#	Time	AA			AI			Ant_Sh			CV7			GH			LAH			Lat_Sh			LCAJ			LPH			Post_Sh			RAH			RCAJ			RHLE			RHME			RPH			RUA			SJN			SXS			TS			TV8			centelbow			centpxt8			centijc7			centLPHRPH			ScapulaThoracicContactPt		
		X1	Y1	Z1	X2	Y2	Z2	X3	Y3	Z3	X4	Y4	Z4	X5	Y5	Z5	X6	Y6	Z6	X7	Y7	Z7	X8	Y8	Z8	X9	Y9	Z9	X10	Y10	Z10	X11	Y11	Z11	X12	Y12	Z12	X13	Y13	Z13	X14	Y14	Z14	X15	Y15	Z15	X16	Y16	Z16	X17	Y17	Z17	X18	Y18	Z18	X19	Y19	Z19	X20	Y20	Z20	X21	Y21	Z21	X22	Y22	Z22	X23	Y23	Z23	X24	Y24	Z24	X25	Y25	Z25
1494	14.93	-485.1016846	1569.439331	-55.56586838	-503.0201416	1380.521118	-85.67192841	-372.535553	1580.235718	-25.28311348	-461.8309021	1598.519897	-215.3880157	-429.8100281	1558.020508	-32.08656311	-248.051712	1774.967407	-252.4776917	-445.2774353	1596.708862	-28.20375443	-386.0133667	1562.684448	-390.2580566	-450.2320557	1719.972046	-267.3847046	-509.2060852	1527.224854	-41.5177803	-254.2028351	1777.182495	-154.9161224	-432.3898621	1591.138306	-78.66281128	-482.2251282	1606.668213	231.1113434	-404.7462158	1520.275391	262.840332	-451.9932556	1726.647217	-152.503952	-494.2201538	1505.687256	96.66854095	-297.3682556	1511.904297	-205.9369965	-243.9245911	1336.855347	-197.6060486	-525.9108276	1509.291138	-137.3383789	-484.6696472	1309.021484	-212.7699432	-443.485672	1563.471802	246.9758377	-364.2971191	1322.938416	-205.1879959	-379.5995789	1555.212097	-210.6625061	-451.1126556	1723.309631	-209.9443283	-504.6775513	1486.417196	-92.85872523
1495	14.94	-485.0236206	1569.435547	-55.52642441	-502.9364014	1380.559326	-85.66516113	-372.390564	1580.185791	-25.35654449	-461.7547302	1598.498657	-215.4150238	-429.697998	1557.99292	-32.12177658	-247.8982849	1774.857788	-252.6420898	-445.1417542	1596.672852	-28.18713188	-386.0675049	1562.670044	-390.2929993	-450.1074524	1720.050781	-267.4284058	-509.1131592	1527.238403	-41.4968605	-254.0259247	1777.103027	-154.9853058	-432.2848206	1591.126099	-78.65260315	-481.9684448	1606.681885	231.1255798	-404.5503845	1520.192993	262.7739563	-451.8315735	1726.716431	-152.5257874	-493.986145	1505.746704	96.5872879	-297.3084412	1511.860596	-206.0248718	-243.9251556	1336.807373	-197.6154785	-525.9036255	1509.35437	-137.2981873	-484.6768188	1309.014526	-212.6966248	-443.2594147	1563.437439	246.9497681	-364.3009872	1322.91095	-205.1560516	-379.5315857	1555.179626	-210.7199478	-450.9695129	1723.383606	-209.9770966	-504.6212158	1486.449748	-92.82992427
1496	14.95	-484.9058533	1569.439087	-55.50078964	-502.9130249	1380.542358	-85.66983795	-372.3173218	1580.013184	-25.57640839	-461.6730042	1598.508545	-215.372757	-429.6104736	1557.918579	-32.23936081	-247.7317352	1774.761719	-252.745224	-445.0314636	1596.692017	-28.21211433	-386.0551758	1562.605591	-390.2742004	-450.0193481	1720.114624	-267.4154053	-509.0188293	1527.29541	-41.47422028	-253.8449097	1776.97876	-155.1047211	-432.2262573	1591.143799	-78.71530914	-481.6989136	1606.661133	231.1779938	-404.2348633	1520.183716	262.8001099	-451.6516418	1726.834839	-152.539505	-493.7856445	1505.765381	96.56950378	-297.2880554	1511.84314	-206.0283813	-243.9182281	1336.756592	-197.6749115	-525.8232422	1509.297852	-137.2607727	-484.6347961	1309.052002	-212.6798401	-442.9668884	1563.422424	246.9890518	-364.2765121	1322.904297	-205.1773758	-379.4805298	1555.175842	-210.7005692	-450.835495	1723.474731	-209.9774551	-504.5473735	1486.426432	-92.81046677
1497	14.96	-484.8093567	1569.429321	-55.49705887	-502.8370972	1380.511719	-85.62633514	-372.2441406	1579.975098	-25.573843	-461.6009216	1598.509521	-215.4027863	-429.5594482	1557.924561	-32.21285629	-247.5615845	1774.640625	-252.9482727	-444.953125	1596.72937	-28.20174599	-386.0819702	1562.573486	-390.2768555	-449.9065857	1720.19458	-267.3900452	-508.9515686	1527.380615	-41.40909576	-253.6188812	1776.924438	-155.1689606	-432.1209717	1591.137695	-78.67611694	-481.4554138	1606.647827	231.2262268	-403.8900452	1520.214722	262.7900391	-451.5407104	1726.88147	-152.5245209	-493.6124878	1505.741333	96.59404755	-297.2106934	1511.805054	-206.0574799	-243.8601074	1336.712524	-197.7396698	-525.7752075	1509.330444	-137.1995392	-484.6752319	1309.069092	-212.6066437	-442.6727295	1563.431274	247.0081329	-364.2676697	1322.890808	-205.1731567	-379.4058075	1555.157288	-210.7301331	-450.7236481	1723.538025	-209.957283	-504.4738871	1486.423828	-92.77431107
1498	14.97	-484.7287903	1569.390259	-55.44239044	-502.7965698	1380.521973	-85.62271118	-372.1658325	1579.975952	-25.5800457	-461.5372925	1598.510742	-215.3685913	-429.4429932	1557.924438	-32.19014359	-247.357666	1774.49353	-253.0030518	-444.8584595	1596.765259	-28.18795204	-386.0074158	1562.570068	-390.2721558	-449.7982178	1720.319336	-267.4112854	-508.8327332	1527.359497	-41.35216904	-253.3936615	1776.825195	-155.2420197	-432.0334778	1591.158936	-78.70562744	-481.1791687	1606.579346	231.2912598	-403.5364685	1520.253174	262.7854309	-451.3533325	1726.970581	-152.4949951	-493.4578857	1505.744263	96.64562988	-297.1528625	1511.811035	-206.0853424	-243.875824	1336.685059	-197.8165131	-525.6958008	1509.326782	-137.1615601	-484.6290283	1309.037354	-212.5350342	-442.3578186	1563.41626	247.0383453	-364.2524261	1322.861206	-205.1757736	-379.3450775	1555.160889	-210.7269669	-450.5757751	1723.644958	-209.9531403	-504.4070536	1486.413005	-92.74222056
